<?xml version="1.0" standalone="no"?><!DOCTYPE svg PUBLIC "-//W3C//DTD SVG 1.1//EN" "http://www.w3.org/Graphics/SVG/1.1/DTD/svg11.dtd"><svg t="1645020002980" class="icon" viewBox="0 0 1024 1024" version="1.1" xmlns="http://www.w3.org/2000/svg" p-id="5996" xmlns:xlink="http://www.w3.org/1999/xlink" width="200" height="200"><defs><style type="text/css"></style></defs><path d="M943.9 528.4H78.8c-6.2 0-11.9-3.8-14.3-9.5-2.4-5.8-1.1-12.4 3.3-16.8l378.9-378.9c6-6 15.8-6 21.8 0s6 15.8 0 21.8L116.1 497.5h827.8c8.5 0 15.4 6.9 15.4 15.4 0.1 8.6-6.8 15.5-15.4 15.5zM444.7 906.3c-4 0-7.9-1.5-10.9-4.5L155.7 623.7c-6-6-6-15.8 0-21.8s15.8-6 21.8 0L455.6 880c6 6 6 15.8 0 21.8-3 3-7 4.5-10.9 4.5z" p-id="5997"></path></svg>